<?xml version="1.0" encoding="UTF-8"?>
<svg xmlns="http://www.w3.org/2000/svg" viewBox="0 0 1260 434" role="img" aria-labelledby="title desc"><title id="title">auth membership rbac</title><desc id="desc">Diagrama técnico renderizado a partir de uma fonte Mermaid editável.</desc><defs><marker id="arrow" markerWidth="10" markerHeight="7" refX="9" refY="3.5" orient="auto"><polygon points="0 0, 10 3.5, 0 7" fill="#65778b"/></marker></defs><rect width="100%" height="100%" fill="#f5f7fa"/><text x="32" y="34" font-family="Arial, sans-serif" font-size="20" font-weight="700" fill="#263649">auth membership rbac</text><g font-family="Arial, sans-serif" font-size="13" fill="#263649"><path d="M 195 134 L 485 134" fill="none" stroke="#65778b" stroke-width="2" marker-end="url(#arrow)"/>
<path d="M 195 134 L 775 134" fill="none" stroke="#65778b" stroke-width="2" marker-end="url(#arrow)"/>
<path d="M 775 134 L 1065 134" fill="none" stroke="#65778b" stroke-width="2" marker-end="url(#arrow)"/>
<path d="M 1065 134 L 195 242" fill="none" stroke="#65778b" stroke-width="2" marker-end="url(#arrow)"/>
<path d="M 195 242 L 485 242" fill="none" stroke="#65778b" stroke-width="2" marker-end="url(#arrow)"/>
<path d="M 485 242 L 775 242" fill="none" stroke="#65778b" stroke-width="2" marker-end="url(#arrow)"/>
<path d="M 485 242 L 1065 242" fill="none" stroke="#65778b" stroke-width="2" marker-end="url(#arrow)"/>
<path d="M 775 242 L 195 350" fill="none" stroke="#65778b" stroke-width="2" marker-end="url(#arrow)"/>
<path d="M 1065 242 L 195 350" fill="none" stroke="#65778b" stroke-width="2" marker-end="url(#arrow)"/><g><rect x="100" y="100" width="190" height="68" rx="12" fill="#ffffff" stroke="#7f91a5" stroke-width="2"/><title>Identity: Firebase Auth</title><text x="195" y="134" text-anchor="middle" dominant-baseline="middle">Firebase Auth</text></g>
<g><rect x="390" y="100" width="190" height="68" rx="12" fill="#ffffff" stroke="#7f91a5" stroke-width="2"/><title>Profile: users uid</title><text x="485" y="134" text-anchor="middle" dominant-baseline="middle">users uid</text></g>
<g><rect x="680" y="100" width="190" height="68" rx="12" fill="#ffffff" stroke="#7f91a5" stroke-width="2"/><title>Context: TenantProvider atelierId</title><text x="775" y="134" text-anchor="middle" dominant-baseline="middle">TenantProvider atelierId</text></g>
<g><rect x="970" y="100" width="190" height="68" rx="12" fill="#ffffff" stroke="#7f91a5" stroke-width="2"/><title>Member: ateliers atelierId members uid</title><text x="1065" y="125" text-anchor="middle" dominant-baseline="middle">ateliers atelierId</text><text x="1065" y="143" text-anchor="middle" dominant-baseline="middle">members uid</text></g>
<g><rect x="100" y="208" width="190" height="68" rx="12" fill="#ffffff" stroke="#7f91a5" stroke-width="2"/><title>Role: role e permissions</title><text x="195" y="242" text-anchor="middle" dominant-baseline="middle">role e permissions</text></g>
<g><rect x="390" y="208" width="190" height="68" rx="12" fill="#ffffff" stroke="#7f91a5" stroke-width="2"/><title>Active: Atelier e membership ativos</title><text x="485" y="233" text-anchor="middle" dominant-baseline="middle">Atelier e membership</text><text x="485" y="251" text-anchor="middle" dominant-baseline="middle">ativos</text></g>
<g><rect x="680" y="208" width="190" height="68" rx="12" fill="#ffffff" stroke="#7f91a5" stroke-width="2"/><title>Rules: Firestore e Storage Rules</title><text x="775" y="242" text-anchor="middle" dominant-baseline="middle">Firestore e Storage Rules</text></g>
<g><rect x="970" y="208" width="190" height="68" rx="12" fill="#ffffff" stroke="#7f91a5" stroke-width="2"/><title>Backend: Cloud Functions</title><text x="1065" y="242" text-anchor="middle" dominant-baseline="middle">Cloud Functions</text></g>
<g><rect x="100" y="316" width="190" height="68" rx="12" fill="#ffffff" stroke="#7f91a5" stroke-width="2"/><title>Data: Dados privados do tenant</title><text x="195" y="350" text-anchor="middle" dominant-baseline="middle">Dados privados do tenant</text></g></g></svg>
