<?xml version="1.0" encoding="UTF-8"?>
<svg xmlns="http://www.w3.org/2000/svg" viewBox="0 0 1060 464" role="img" aria-labelledby="title desc"><title id="title">firebase data model</title><desc id="desc">Diagrama técnico renderizado a partir de uma fonte Mermaid editável.</desc><defs><marker id="arrow" markerWidth="10" markerHeight="7" refX="9" refY="3.5" orient="auto"><polygon points="0 0, 10 3.5, 0 7" fill="#65778b"/></marker></defs><rect width="100%" height="100%" fill="#f5f7fa"/><text x="32" y="34" font-family="Arial, sans-serif" font-size="20" font-weight="700" fill="#263649">firebase data model</text><g font-family="Arial, sans-serif" font-size="13" fill="#263649"><path d="M 190 144 L 870 144" fill="none" stroke="#65778b" stroke-width="2" marker-end="url(#arrow)"/>
<path d="M 530 144 L 870 144" fill="none" stroke="#65778b" stroke-width="2" marker-end="url(#arrow)"/>
<path d="M 870 144 L 190 257" fill="none" stroke="#65778b" stroke-width="2" marker-end="url(#arrow)"/>
<path d="M 870 144 L 530 257" fill="none" stroke="#65778b" stroke-width="2" marker-end="url(#arrow)"/>
<path d="M 530 257 L 870 257" fill="none" stroke="#65778b" stroke-width="2" marker-end="url(#arrow)"/>
<path d="M 870 144 L 190 370" fill="none" stroke="#65778b" stroke-width="2" marker-end="url(#arrow)"/>
<path d="M 190 370 L 530 370" fill="none" stroke="#65778b" stroke-width="2" marker-end="url(#arrow)"/>
<path d="M 870 144 L 870 370" fill="none" stroke="#65778b" stroke-width="2" marker-end="url(#arrow)"/><g><rect x="40" y="115" width="300" height="58" rx="12" fill="#ffffff" stroke="#7f91a5" stroke-width="2"/><title>Slug: publicAtelierSlugs slug</title><text x="190" y="144" text-anchor="middle" dominant-baseline="middle">publicAtelierSlugs slug</text></g>
<g><rect x="380" y="115" width="300" height="58" rx="12" fill="#ffffff" stroke="#7f91a5" stroke-width="2"/><title>Public: publicAteliers atelierId</title><text x="530" y="144" text-anchor="middle" dominant-baseline="middle">publicAteliers atelierId</text></g>
<g><rect x="720" y="115" width="300" height="58" rx="12" fill="#ffffff" stroke="#7f91a5" stroke-width="2"/><title>Atelier: ateliers atelierId</title><text x="870" y="144" text-anchor="middle" dominant-baseline="middle">ateliers atelierId</text></g>
<g><rect x="40" y="228" width="300" height="58" rx="12" fill="#ffffff" stroke="#7f91a5" stroke-width="2"/><title>Member: members uid</title><text x="190" y="257" text-anchor="middle" dominant-baseline="middle">members uid</text></g>
<g><rect x="380" y="228" width="300" height="58" rx="12" fill="#ffffff" stroke="#7f91a5" stroke-width="2"/><title>Requests: quoteRequests requestId</title><text x="530" y="257" text-anchor="middle" dominant-baseline="middle">quoteRequests requestId</text></g>
<g><rect x="720" y="228" width="300" height="58" rx="12" fill="#ffffff" stroke="#7f91a5" stroke-width="2"/><title>References: references referenceId</title><text x="870" y="257" text-anchor="middle" dominant-baseline="middle">references referenceId</text></g>
<g><rect x="40" y="341" width="300" height="58" rx="12" fill="#ffffff" stroke="#7f91a5" stroke-width="2"/><title>Orders: orders orderId</title><text x="190" y="370" text-anchor="middle" dominant-baseline="middle">orders orderId</text></g>
<g><rect x="380" y="341" width="300" height="58" rx="12" fill="#ffffff" stroke="#7f91a5" stroke-width="2"/><title>Snapshot: measurementSnapshot e production</title><text x="530" y="361" text-anchor="middle" dominant-baseline="middle">measurementSnapshot e</text><text x="530" y="379" text-anchor="middle" dominant-baseline="middle">production</text></g>
<g><rect x="720" y="341" width="300" height="58" rx="12" fill="#ffffff" stroke="#7f91a5" stroke-width="2"/><title>Audit: auditLogs</title><text x="870" y="370" text-anchor="middle" dominant-baseline="middle">auditLogs</text></g></g></svg>
