<?xml version="1.0" encoding="UTF-8"?>
<svg xmlns="http://www.w3.org/2000/svg" width="2396" height="388" viewBox="0 0 2396 388" role="img" aria-labelledby="title desc"><title id="title">system context</title><desc id="desc">Diagrama técnico em níveis de dependência, renderizado de fonte Mermaid editável. Conexões chegam às bordas; saltos usam corredores externos.</desc><defs><marker id="arrow" markerWidth="8" markerHeight="8" refX="8" refY="4" orient="auto" markerUnits="userSpaceOnUse"><path d="M 0 0 L 8 4 L 0 8 Z" fill="#64748b"/></marker></defs><rect width="100%" height="100%" fill="#f8fafc"/><text x="32" y="40" font-family="Arial, sans-serif" font-size="22" font-weight="700" fill="#1e293b">system context</text><g font-family="Arial, sans-serif" font-size="14" fill="#334155"><path data-edge="Maker:Browser" d="M 329 178 L 389.5 178 L 389.5 229.33333333333334 L 450 229.33333333333334" fill="none" stroke="#64748b" stroke-width="2" stroke-linejoin="round" marker-end="url(#arrow)"/>
<path data-edge="Client:Browser" d="M 329 306 L 389.5 306 L 389.5 254.66666666666666 L 450 254.66666666666666" fill="none" stroke="#64748b" stroke-width="2" stroke-linejoin="round" marker-end="url(#arrow)"/>
<path data-edge="Browser:Next" d="M 733 242 L 793.5 242 L 793.5 242 L 854 242" fill="none" stroke="#64748b" stroke-width="2" stroke-linejoin="round" marker-end="url(#arrow)"/>
<path data-edge="Next:Firebase" d="M 1137 242 L 1197.5 242 L 1197.5 242 L 1258 242" fill="none" stroke="#64748b" stroke-width="2" stroke-linejoin="round" marker-end="url(#arrow)"/>
<path data-edge="Firebase:Functions" d="M 1541 242 L 1601.5 242 L 1601.5 242 L 1662 242" fill="none" stroke="#64748b" stroke-width="2" stroke-linejoin="round" marker-end="url(#arrow)"/>
<path data-edge="Functions:Firestore" d="M 1945 229.33333333333334 L 2005.5 229.33333333333334 L 2005.5 178 L 2066 178" fill="none" stroke="#64748b" stroke-width="2" stroke-linejoin="round" marker-end="url(#arrow)"/>
<path data-edge="Functions:Storage" d="M 1945 254.66666666666666 L 2005.5 254.66666666666666 L 2005.5 306 L 2066 306" fill="none" stroke="#64748b" stroke-width="2" stroke-linejoin="round" marker-end="url(#arrow)"/><g data-node="Maker" data-rank="0"><rect x="48" y="140" width="280" height="76" rx="12" fill="#ffffff" stroke="#94a3b8" stroke-width="1.5"/><title>Maker: Cosmaker / equipe</title><text x="188" y="178" text-anchor="middle" dominant-baseline="middle">Cosmaker / equipe</text></g>
<g data-node="Client" data-rank="0"><rect x="48" y="268" width="280" height="76" rx="12" fill="#ffffff" stroke="#94a3b8" stroke-width="1.5"/><title>Client: Cliente</title><text x="188" y="306" text-anchor="middle" dominant-baseline="middle">Cliente</text></g>
<g data-node="Browser" data-rank="1"><rect x="452" y="204" width="280" height="76" rx="12" fill="#ffffff" stroke="#94a3b8" stroke-width="1.5"/><title>Browser: Navegador</title><text x="592" y="242" text-anchor="middle" dominant-baseline="middle">Navegador</text></g>
<g data-node="Next" data-rank="2"><rect x="856" y="204" width="280" height="76" rx="12" fill="#ffffff" stroke="#94a3b8" stroke-width="1.5"/><title>Next: Aplicação Next.js</title><text x="996" y="242" text-anchor="middle" dominant-baseline="middle">Aplicação Next.js</text></g>
<g data-node="Firebase" data-rank="3"><rect x="1260" y="204" width="280" height="76" rx="12" fill="#ffffff" stroke="#94a3b8" stroke-width="1.5"/><title>Firebase: Firebase</title><text x="1400" y="242" text-anchor="middle" dominant-baseline="middle">Firebase</text></g>
<g data-node="Functions" data-rank="4"><rect x="1664" y="204" width="280" height="76" rx="12" fill="#ffffff" stroke="#94a3b8" stroke-width="1.5"/><title>Functions: Cloud Functions</title><text x="1804" y="242" text-anchor="middle" dominant-baseline="middle">Cloud Functions</text></g>
<g data-node="Firestore" data-rank="5"><rect x="2068" y="140" width="280" height="76" rx="12" fill="#ffffff" stroke="#94a3b8" stroke-width="1.5"/><title>Firestore: Firestore</title><text x="2208" y="178" text-anchor="middle" dominant-baseline="middle">Firestore</text></g>
<g data-node="Storage" data-rank="5"><rect x="2068" y="268" width="280" height="76" rx="12" fill="#ffffff" stroke="#94a3b8" stroke-width="1.5"/><title>Storage: Cloud Storage</title><text x="2208" y="306" text-anchor="middle" dominant-baseline="middle">Cloud Storage</text></g></g></svg>
